<?xml version="1.0" encoding="UTF-8"?>
<svg width="33px" height="43px" viewBox="0 0 33 43" version="1.1" xmlns="http://www.w3.org/2000/svg" xmlns:xlink="http://www.w3.org/1999/xlink">
    <!-- Generator: Sketch 51.2 (57519) - http://www.bohemiancoding.com/sketch -->
    <title>Group 5 Copy 6</title>
    <desc>Created with Sketch.</desc>
    <defs></defs>
    <g id="Final-MVP-Screens" stroke="none" stroke-width="1" fill="none" fill-rule="evenodd">
        <g id="Rewards-—-Redeem" transform="translate(-61.000000, -1025.000000)" fill="#181839" fill-rule="nonzero">
            <g id="Group-12" transform="translate(15.000000, 990.000000)">
                <g id="Group-11" transform="translate(28.000000, 24.000000)">
                    <g id="Group-5-Copy-6" transform="translate(18.000000, 11.000000)">
                        <path d="M28.875,14.3333333 L26.8125,14.3333333 L26.8125,10.2380952 C26.8125,4.58666667 22.1925,0 16.5,0 C10.8075,0 6.1875,4.58666667 6.1875,10.2380952 L6.1875,14.3333333 L4.125,14.3333333 C1.8459375,14.3333333 0,16.1659524 0,18.4285714 L0,38.9047619 C0,41.167381 1.8459375,43 4.125,43 L28.875,43 C31.1540625,43 33,41.167381 33,38.9047619 L33,18.4285714 C33,16.1659524 31.1540625,14.3333333 28.875,14.3333333 Z M17,32 C14.79,32 13,30.21 13,28 C13,25.79 14.79,24 17,24 C19.21,24 21,25.79 21,28 C21,30.21 19.21,32 17,32 Z M23,14 L10,14 L10,10.4705882 C10,7.45294118 12.9145161,5 16.5,5 C20.0854839,5 23,7.45294118 23,10.4705882 L23,14 Z" id="Shape"></path>
                    </g>
                </g>
            </g>
        </g>
    </g>
</svg>