<?xml version="1.0" encoding="UTF-8"?>
<svg width="99px" height="223px" viewBox="0 0 99 223" version="1.1" xmlns="http://www.w3.org/2000/svg" xmlns:xlink="http://www.w3.org/1999/xlink">
    <!-- Generator: Sketch 51.2 (57519) - http://www.bohemiancoding.com/sketch -->
    <title>Group 4</title>
    <desc>Created with Sketch.</desc>
    <defs></defs>
    <g id="Final-MVP-Screens" stroke="none" stroke-width="1" fill="none" fill-rule="evenodd">
        <g id="Title-Screen-Copy-2" transform="translate(-140.000000, -145.000000)">
            <g id="Group-4" transform="translate(187.955933, 258.338034) rotate(1.000000) translate(-187.955933, -258.338034) translate(138.955933, 145.838034)">
                <g id="Group-39">
                    <path d="M28.5803832,44.8280703 L28.6379822,44.1007719 C26.8548639,43.4065883 25.0386569,43.4188531 23.2052927,43.7966067 C23.2003906,45.7111307 23.1954886,47.6268811 23.191812,49.5426316 C23.5190234,55.0727973 23.9332461,60.6544749 25.506802,65.941799 C27.944343,65.220633 27.2948223,65.4144157 29.7323633,64.6932497 C29.3745142,61.0089255 28.8181323,57.8863259 28.4602831,54.2032281 C28.1759646,51.2744112 28.3487616,47.7617932 28.5803832,44.8280703" id="Fill-1" fill="#FFCC99"></path>
                    <path d="M79.0525565,169.787616 C78.6493634,170.874271 78.2461703,171.960926 77.8429773,173.047581 C74.9630268,172.009985 72.0843019,170.973615 69.2068025,169.936019 C70.3906459,169.008806 71.5720384,168.082819 72.7522053,167.155606 C74.8527308,168.03376 76.9532564,168.910688 79.0525565,169.787616" id="Fill-3" fill="#FFCC99"></path>
                    <path d="M42.0299969,134.827746 C40.9809596,134.559148 39.9319223,134.291777 38.882885,134.026859 C37.4821262,132.172432 35.0838015,132.12092 33.3092618,130.943507 C37.3387414,113.969124 38.4147399,96.6292515 39.6843691,79.3151354 C43.7726733,77.2117346 47.8425947,77.2166405 51.895359,79.4157062 C49.7139498,94.4951889 48.2543664,109.642128 48.548489,124.887184 C48.6073135,127.926384 47.3536159,131.989688 51.7617783,133.66137 C51.7323661,134.424236 51.7029538,135.187102 51.6723161,135.952421 C48.4590267,135.577121 45.2445118,135.203047 42.0299969,134.827746" id="Fill-5" fill="#CACED3"></path>
                    <path d="M33.3088941,130.943507 C35.0834338,132.12092 37.4817585,132.172432 38.8825174,134.026859 C35.0711787,151.545796 38.8224674,160.819157 53.6683055,170.542633 C54.967347,171.391352 56.8411531,171.939585 55.2198023,174.05893 C54.0384098,174.984917 52.8557919,175.910904 51.6743994,176.836891 C43.1240104,182.601313 43.077441,182.631975 37.2293033,173.838165 C28.5024407,160.71368 27.0698185,146.126013 28.8186225,130.930015 C30.3161967,130.934921 31.8113199,130.939827 33.3088941,130.943507" id="Fill-7" fill="#020506"></path>
                    <path d="M42.0299969,134.827746 C45.2445118,135.203047 48.4590267,135.577121 51.6723161,135.952421 C54.1294653,151.30786 63.2362362,160.208373 79.052679,163.062375 C75.4337455,165.950719 74.7658421,169.869299 71.8797641,172.685281 C69.0010392,175.49513 67.4250323,175.052373 64.792635,173.158699 C51.6171681,163.682971 44.534941,150.627168 42.0299969,134.827746" id="Fill-9" fill="#020506"></path>
                    <path d="M33.3088941,130.943507 C31.8113199,130.939827 30.3161967,130.934921 28.8186225,130.930015 C25.144541,130.111958 23.5097095,128.517543 25.0085093,124.311968 C29.4448585,111.853458 30.1115364,98.4652812 34.1103782,85.887803 C34.7525459,83.8714818 33.6986066,82.8903035 32.7770224,81.5914689 C29.2242665,76.585007 26.4680927,71.1983386 25.1114522,65.1616397 C26.677655,64.765489 28.2450834,64.3717912 29.8112862,63.9793199 C32.4387814,71.0168207 33.8689526,75.0175748 39.6840015,79.313909 C38.4143723,96.6292515 37.3383737,113.969124 33.3088941,130.943507" id="Fill-11" fill="#203E61"></path>
                    <path d="M49.7653498,218.016767 C50.4822736,217.650052 51.2506689,217.367963 52.0447999,217.171727 C51.2506689,217.367963 50.4822736,217.650052 49.7653498,218.016767 M62.8476779,220.726045 C67.8244773,220.833975 72.6456369,220.029409 77.2964505,218.241212 C77.3773343,217.89044 77.4766006,217.544575 77.5954752,217.204842 C77.3148332,214.435467 75.258426,213.722886 73.0096137,213.053232 C58.2336296,208.653874 43.2554362,207.069271 27.953708,209.615429 C26.0235285,209.936764 23.1876964,209.35419 22.8543575,211.832891 C22.4842532,214.575284 25.1191015,215.966105 27.3630118,216.871241 C33.4182608,219.318055 39.7529263,220.690478 46.2603888,221.228899 L62.8489034,220.726045 C60.8611248,217.680714 56.9186565,216.44075 53.2543791,216.939924 C56.9186565,216.44075 60.8611248,217.680714 62.8476779,220.726045" id="Fill-13" fill-opacity="0.3" fill="#3D3877" style="mix-blend-mode: multiply;" transform="translate(50.207404, 214.812791) rotate(-6.000000) translate(-50.207404, -214.812791) "></path>
                    <path d="M51.7622686,133.661125 C47.3528806,131.989443 48.6078037,127.926138 48.5489792,124.886939 C48.2548566,109.641882 49.7132144,94.4949436 51.8946237,79.4154609 C54.251281,81.2306406 55.2451703,78.5507976 56.8567171,77.9081259 C58.1704647,78.9530807 59.4829868,79.9980355 60.7955089,81.0442167 C55.546646,85.0829916 55.1103641,90.6806133 55.2954163,96.7418417 C55.6177256,107.334887 55.4841449,117.940197 55.6520399,128.539375 C55.6973838,131.414227 55.7022859,133.956705 51.7622686,133.661125" id="Fill-15" fill="#203E61"></path>
                    <path d="M60.7956314,81.0438488 C59.4831093,79.9976675 58.1693617,78.9527127 56.8580651,77.9089844 C64.4893211,68.2971173 69.2406266,57.5519894 69.743086,45.1327261 C71.6352747,45.1805586 73.5274634,45.228391 75.4184266,45.2774499 C74.896359,58.9820566 70.3190761,71.0247927 60.7956314,81.0438488" id="Fill-17" fill="#FFCC99"></path>
                    <path d="M81.2821283,179.92098 C80.9990353,180.676487 80.2392186,180.770925 79.8507317,180.103724 C78.757576,178.235806 78.3470299,175.922678 77.7649122,173.761633 C77.4180927,172.470158 76.3396431,170.662337 77.8556,169.77805 C78.7869883,169.235949 80.1240206,169.709367 81.2392354,169.993909 C82.8532332,170.404777 82.720878,172.012683 82.380186,173.614457 C81.9426786,175.666346 82.0296899,177.927961 81.2821283,179.92098" id="Fill-19" fill="#FF575B"></path>
                    <path d="M61.5196632,176.690082 C72.2122452,177.293507 62.5037484,183.975331 65.2390886,186.950754 C65.7709603,187.79334 63.702298,189.268787 62.3432065,186.317894 C61.2132855,183.759471 61.4387795,182.508469 60.3088585,179.951273 C60.7132771,178.863392 61.1164702,177.776737 61.5196632,176.690082" id="Fill-21" fill="#FF575B"></path>
                    <path d="M61.5196632,176.690082 C61.1164702,177.776737 60.7132771,178.863392 60.3088585,179.951273 C57.4301336,178.912451 54.5501831,177.876082 51.6739092,176.838486 C52.8565272,175.911272 54.0391451,174.985285 55.2193121,174.058072 C57.3186121,174.936226 59.4191377,175.813154 61.5196632,176.690082" id="Fill-23" fill="#FFCC99"></path>
                    <path d="M44.3444966,64.7289401 C48.6203039,63.3270817 52.087274,63.854465 53.2845981,68.8830033 C53.8642647,71.3212312 53.8581372,74.1212685 51.5370197,75.5341652 C49.2649226,76.9176265 46.2808037,76.9519677 43.9180188,75.6678507 C41.3689563,74.2831629 41.7366096,71.4487844 42.2402945,69.0755596 C42.5638294,67.5547333 43.6202197,66.1884427 44.3457221,64.754696 C44.3432711,64.757149 44.3444966,64.7289401 44.3444966,64.7289401" id="Fill-25" fill="#FFCC99"></path>
                    <path d="M44.3444966,64.7289401 C44.3444966,64.7289401 44.3432711,64.757149 44.3457221,64.754696 C41.1557174,65.499165 38.225521,65.4819944 36.6102978,61.939941 C36.1298975,60.883948 35.5943493,58.7498853 37.0257459,59.1067889 C43.1533001,60.6374269 42.0613699,55.3096292 43.7550259,52.6310127 C43.9535586,52.3170357 44.3751344,52.1465559 44.6986692,51.9147526 C49.4401706,56.9751792 49.5958105,64.6725223 44.3444966,64.7289401" id="Fill-27" fill="#020506"></path>
                    <path d="M92.2089054,46.9390752 L3.77481846,44.2862146 C1.62649797,44.2212116 -0.0622559501,42.4268819 0.00269612382,40.2768751 L1.09462627,3.77827201 C1.15957835,1.62826525 2.9537262,-0.0618142275 5.10082117,0.00196235643 L93.5361336,2.65604943 C95.6844541,2.71982601 97.373208,4.51538215 97.308256,6.66538891 L96.2163258,43.1627656 C96.1513738,45.3127723 94.3572259,47.0040783 92.2089054,46.9390752" id="Fill-29" fill="#3D3877"></path>
                    <g id="Group-2" transform="translate(20.833684, 12.264728)" fill="#FFFFFF">
                        <polygon id="Fill-31" points="17.1451416 0.719448926 16.6990557 20.1247011 12.9048741 20.036395 13.0960538 11.7196832 4.70498118 11.527127 4.51257598 19.8426123 0.717168937 19.7555328 1.16325488 0.350280623 4.95988743 0.438586662 4.78218836 8.11753267 13.175712 8.31008889 13.3521856 0.631142887"></polygon>
                        <path d="M29.7915555,11.7720536 C29.7731728,10.1359389 28.8895795,8.83833071 26.9495959,8.79417769 C24.872355,8.74634526 23.9299372,10.0010269 23.8086116,11.6346886 L29.7915555,11.7720536 Z M19.9519291,13.015697 C20.0462934,8.91314555 22.3955977,5.58327199 27.0206755,5.68997512 C31.3148655,5.78931941 33.6519146,8.94871326 33.5624523,12.8856909 L33.5293635,14.3280228 L23.7252769,14.1011254 C23.7056687,16.0696142 24.6713713,17.4788314 26.8037601,17.5291168 C28.4643273,17.5671374 29.3687543,16.8104037 29.6665534,15.9297963 L33.295291,16.0131964 C32.8479795,18.6108657 30.4435273,20.6909636 26.733906,20.6051105 C22.2730466,20.5020867 19.8563392,17.1746661 19.9519291,13.015697 Z" id="Fill-33"></path>
                        <polygon id="Fill-35" points="38.4072643 6.20264073 41.489424 16.8128567 41.59972 16.8153096 45.277478 6.36085572 49.2665157 6.45406765 49.2603882 6.73002402 41.3374607 27.0440925 37.3496484 26.952107 37.3570015 26.6749242 39.6842466 20.6259605 39.1572769 20.5867134 34.579994 6.39151754 34.587347 6.11433469"></polygon>
                        <path d="M51.294246,4.16951682 L51.3555215,1.50807092 L55.3457848,1.60005637 L55.2845092,4.26150228 L54.3212577,14.834924 L51.632487,14.7723739 L51.294246,4.16951682 Z M50.9155631,16.9481366 L55.0173479,17.042575 L54.9254346,21.006535 L50.8248753,20.9108701 L50.9155631,16.9481366 Z" id="Fill-37"></path>
                    </g>
                </g>
            </g>
        </g>
    </g>
</svg>