<svg id="Layer_1" data-name="Layer 1" xmlns="http://www.w3.org/2000/svg" xmlns:xlink="http://www.w3.org/1999/xlink" viewBox="0 0 549.06 227.2"><defs><style>.cls-1{fill:none;}.cls-2{clip-path:url(#clip-path);}.cls-3{fill:#231f20;}</style><clipPath id="clip-path"><rect class="cls-1" width="549.06" height="227.2"/></clipPath></defs><title>Congrats Screen</title><g class="cls-2"><path class="cls-3" d="M74.36,43.6C50.86,43.6,33.91,54.74,24,70.48V64.1A241.47,241.47,0,0,0,1.57,106.45c-.34,2.43-.84,4.84-1.32,7.24-.08,1.47-.14,3-.25,4.42V227.2H25.19V157.44c5.81,10.66,22,25.67,49.41,25.67,39.48,0,66.37-31.73,66.37-69,0-32.7-21.32-70.48-66.61-70.48m41.17,69.76c0,25.67-19.13,46.26-45.77,46.26a46.12,46.12,0,0,1-32.7-13.32C28.82,138.06,24,126.68,24,113.6s4.84-24.71,12.84-32.94A44.9,44.9,0,0,1,69.51,67.09c30.77,0,46,24.47,46,46Z"/><rect class="cls-3" x="156.53" width="25.19" height="179.24"/><path class="cls-3" d="M325.91,179.24H302.18V158.89c-6.3,13.57-21.07,24.47-44.57,24.22-42.39-.24-53.29-31-53.29-58.37V47.47h25.19v71.46c0,23.73,9.21,40.69,35.13,40.69,24.7-.24,36.09-16,36.09-38.51V47.47h25.18Z"/><path class="cls-3" d="M348.75,47.47h23.74V66.12c5.57-11.14,20.83-22.52,40-22.52,12.11,0,24.71,3.63,33.91,14,3.39,3.39,7,10.41,8.48,12.83a56.51,56.51,0,0,1,9.44-13.08c8.48-8.47,20.59-13.8,34.88-13.8,12.11,0,25.68,3.39,35.36,13.32,11.63,11.87,14.54,24.46,14.54,49.65v72.67H523.87v-71.7c0-10.9-1.45-21.8-7.27-29.3C512,71.45,505,67.33,493.11,67.33c-11.14,0-20.59,4.61-25.43,12.6-5.33,8.24-6.06,15.5-6.06,26.64v72.67H436.19V106.57c.24-10.9-1-18.89-5.33-26.15-4.85-7.76-12.6-12.84-24.95-13.09-11.87-.24-20.59,5.58-25,12.84-4.84,7-7,16.23-7,26.89v72.18H348.75Z"/><path class="cls-3" d="M1.87,103.63a48.4,48.4,0,0,1-.74,5.61l40.28-32.7,20.3-31.78S18.54,48.54,1.87,103.63"/></g></svg>