<?xml version="1.0" encoding="UTF-8"?>
<svg width="17px" height="22px" viewBox="0 0 17 22" version="1.1" xmlns="http://www.w3.org/2000/svg" xmlns:xlink="http://www.w3.org/1999/xlink">
    <!-- Generator: Sketch 51.2 (57519) - http://www.bohemiancoding.com/sketch -->
    <title>Shape Copy</title>
    <desc>Created with Sketch.</desc>
    <defs></defs>
    <g id="Final-MVP-Screens" stroke="none" stroke-width="1" fill="none" fill-rule="evenodd">
        <g id="Rewards-—-Redeem" transform="translate(-30.000000, -607.000000)" fill="#181839" fill-rule="nonzero">
            <g id="Group-2" transform="translate(30.000000, 607.000000)">
                <path d="M8.5,16.7619048 C9.6740625,16.7619048 10.625,15.8242857 10.625,14.6666667 C10.625,13.5090476 9.6740625,12.5714286 8.5,12.5714286 C7.3259375,12.5714286 6.375,13.5090476 6.375,14.6666667 C6.375,15.8242857 7.3259375,16.7619048 8.5,16.7619048 Z M14.875,7.33333333 L13.8125,7.33333333 L13.8125,5.23809524 C13.8125,2.34666667 11.4325,0 8.5,0 C5.5675,0 3.1875,2.34666667 3.1875,5.23809524 L5.20625,5.23809524 C5.20625,3.44666667 6.683125,1.99047619 8.5,1.99047619 C10.316875,1.99047619 11.79375,3.44666667 11.79375,5.23809524 L11.79375,7.33333333 L2.125,7.33333333 C0.9509375,7.33333333 0,8.27095238 0,9.42857143 L0,19.9047619 C0,21.062381 0.9509375,22 2.125,22 L14.875,22 C16.0490625,22 17,21.062381 17,19.9047619 L17,9.42857143 C17,8.27095238 16.0490625,7.33333333 14.875,7.33333333 Z M14.875,19.9047619 L2.125,19.9047619 L2.125,9.42857143 L14.875,9.42857143 L14.875,19.9047619 Z" id="Shape-Copy"></path>
            </g>
        </g>
    </g>
</svg>