<?xml version="1.0" encoding="UTF-8"?>
<svg width="132px" height="132px" viewBox="0 0 132 132" version="1.1" xmlns="http://www.w3.org/2000/svg" xmlns:xlink="http://www.w3.org/1999/xlink">
    <!-- Generator: Sketch 51.2 (57519) - http://www.bohemiancoding.com/sketch -->
    <title>unlocked</title>
    <desc>Created with Sketch.</desc>
    <defs></defs>
    <g id="unlocked" stroke="none" stroke-width="1" fill="none" fill-rule="evenodd">
        <path d="M65.5,80 C67.98625,80 70,77.98625 70,75.5 C70,73.01375 67.98625,71 65.5,71 C63.01375,71 61,73.01375 61,75.5 C61,77.98625 63.01375,80 65.5,80 Z M81.75,57 C84.650625,57 87,59.3014286 87,62.1428571 L87,87.8571429 C87,90.6985714 84.650625,93 81.75,93 L50.25,93 C47.349375,93 45,90.6985714 45,87.8571429 L45,62.1428571 C45,59.3014286 47.349375,57 50.25,57 L74.1375,57 L74.1375,51.8571429 C74.1375,47.46 70.48875,43.8857143 66,43.8857143 C61.51125,43.8857143 59,46.5 57.5,49.5 L53.5,47.5 C54,46.5 53.8662331,46.2546454 55.5361953,44.0976403 C57.9335444,41.0011066 61.7296619,39 66,39 C73.245,39 79.125,44.76 79.125,51.8571429 L79.125,57 L81.75,57 Z M53,62 C51.3431458,62 50,63.3431458 50,65 L50,85 C50,86.6568542 51.3431458,88 53,88 L79,88 C80.6568542,88 82,86.6568542 82,85 L82,65 C82,63.3431458 80.6568542,62 79,62 L53,62 Z" id="Shape-Copy" fill="#181839" fill-rule="nonzero"></path>
    </g>
</svg>