<?xml version="1.0" encoding="UTF-8"?>
<svg width="132px" height="132px" viewBox="0 0 132 132" version="1.1" xmlns="http://www.w3.org/2000/svg" xmlns:xlink="http://www.w3.org/1999/xlink">
    <!-- Generator: Sketch 51.2 (57519) - http://www.bohemiancoding.com/sketch -->
    <title>locked</title>
    <desc>Created with Sketch.</desc>
    <defs></defs>
    <g id="locked" stroke="none" stroke-width="1" fill="none" fill-rule="evenodd">
        <g id="Group-5-Copy-6" transform="translate(46.000000, 40.000000)" fill="#181839" fill-rule="nonzero">
            <path d="M35.875,17.6666667 L33.3125,17.6666667 L33.3125,12.6190476 C33.3125,5.65333333 27.5725,0 20.5,0 C13.4275,0 7.6875,5.65333333 7.6875,12.6190476 L7.6875,17.6666667 L5.125,17.6666667 C2.2934375,17.6666667 0,19.9254762 0,22.7142857 L0,47.952381 C0,50.7411905 2.2934375,53 5.125,53 L35.875,53 C38.7065625,53 41,50.7411905 41,47.952381 L41,22.7142857 C41,19.9254762 38.7065625,17.6666667 35.875,17.6666667 Z M21.1212121,39.4418605 C18.3754545,39.4418605 16.1515152,37.2355814 16.1515152,34.5116279 C16.1515152,31.7876744 18.3754545,29.5813953 21.1212121,29.5813953 C23.8669697,29.5813953 26.0909091,31.7876744 26.0909091,34.5116279 C26.0909091,37.2355814 23.8669697,39.4418605 21.1212121,39.4418605 Z M28.5757576,17.255814 L12.4242424,17.255814 L12.4242424,12.9056088 C12.4242424,9.18618331 16.0453079,6.1627907 20.5,6.1627907 C24.9546921,6.1627907 28.5757576,9.18618331 28.5757576,12.9056088 L28.5757576,17.255814 Z" id="Shape"></path>
        </g>
    </g>
</svg>